<svg width="128" height="128" viewBox="0 0 128 128" fill="none" xmlns="http://www.w3.org/2000/svg">
<path d="M112.976 85.7926V111.783C112.976 112.44 112.44 113 111.759 113H85.7683C85.1112 113 84.5515 112.465 84.5515 111.783V96.9871C84.5515 89.881 78.6379 78.4189 64.3042 77.9809C64.1825 77.9809 62.4303 78.0539 60.2645 78.3702C50.8465 79.7574 43.3755 91.3899 43.3755 105.432V111.783C43.3755 112.44 42.8401 113 42.1587 113H16.2168C15.5597 113 15 112.465 15 111.783V85.7926C15 85.1356 15.5354 84.5759 16.2168 84.5759H31.0372C39.8224 84.5759 48.6563 77.5185 49.2404 64.0122C48.8997 59.4857 48.0236 53.4748 41.2096 46.4174L41.1366 46.3444L41.0636 46.2714C33.8602 38.6057 28.9444 37.3889 18.115 36.3911C18.0663 36.3911 18.042 36.3911 17.9933 36.3911H15V16.2168C15 15.5597 15.5597 15 16.2168 15H35.1987C35.8557 15 36.4154 15.5354 36.4154 16.2168V19.6968C36.8535 29.7475 39.3844 33.7628 46.2958 41.0149L45.1763 39.6764C52.4527 47.5369 57.3442 48.8023 68.1249 49.8001C68.1736 49.8001 68.1979 49.8001 68.2466 49.8001H77.0074C77.6645 49.8001 78.2242 50.3355 78.2242 51.0169V65.8617C78.2242 75.7907 89.4187 83.9188 103.582 84.5759H111.808C112.465 84.5759 113.024 85.1112 113.024 85.7926H112.976Z" fill="white"/>
<path d="M112.002 15H85.598C85.0469 15 84.6002 15.4467 84.6002 15.9978V42.402C84.6002 42.9531 85.0469 43.3998 85.598 43.3998H112.002C112.553 43.3998 113 42.9531 113 42.402V15.9978C113 15.4467 112.553 15 112.002 15Z" fill="white"/>
</svg>
